<svg width="42" height="42" viewBox="0 0 42 42" fill="none" xmlns="http://www.w3.org/2000/svg">
<path d="M10.0037 25H6.83398C4.07256 25 1.83398 27.2386 1.83398 30V37C1.83398 39.7614 4.07256 42 6.83398 42H35.1056C37.867 42 40.1056 39.7614 40.1056 37V30C40.1056 27.2386 37.867 25 35.1056 25H31.4574C29.8926 25 28.6241 26.2685 28.6241 27.8333C28.6241 29.3981 27.3556 30.6667 25.7908 30.6667H15.6704C14.1056 30.6667 12.8371 29.3981 12.8371 27.8333C12.8371 26.2685 11.5685 25 10.0037 25Z" fill="#D4D4D8"/>
<path d="M9.48828 9H32.4512" stroke="#161616" stroke-width="2" stroke-miterlimit="10" stroke-linecap="round" stroke-linejoin="round"/>
<path d="M9.48828 17H32.4512" stroke="#161616" stroke-width="2" stroke-miterlimit="10" stroke-linecap="round" stroke-linejoin="round"/>
<path d="M1.83398 25H13.3155V31H28.6241V25H40.1056" stroke="#161616" stroke-width="2" stroke-miterlimit="10" stroke-linecap="round" stroke-linejoin="round"/>
<path d="M36.2784 1H5.66114C3.54746 1 1.83398 2.79086 1.83398 5V37C1.83398 39.2091 3.54746 41 5.66114 41H36.2784C38.3921 41 40.1056 39.2091 40.1056 37V5C40.1056 2.79086 38.3921 1 36.2784 1Z" stroke="#161616" stroke-width="2" stroke-miterlimit="10" stroke-linecap="round" stroke-linejoin="round"/>
</svg>
