<svg width="46" height="42" viewBox="0 0 46 42" fill="none" xmlns="http://www.w3.org/2000/svg">
<path d="M30.1899 18.4609C29.701 17.9392 29.106 17.5392 28.4491 17.2907C27.7921 17.0422 27.09 16.9516 26.3949 17.0256C25.6998 17.0996 25.0296 17.3362 24.434 17.718C23.8384 18.0998 23.3328 18.6169 22.9546 19.2309C22.5766 18.6167 22.071 18.0995 21.4754 17.7176C20.8798 17.3357 20.2095 17.099 19.5144 17.025C18.8193 16.951 18.1171 17.0417 17.4601 17.2903C16.8031 17.5389 16.2081 17.939 15.7194 18.4609C14.8375 19.4035 14.3437 20.6695 14.3438 21.9879C14.3437 23.3063 14.8375 24.5722 15.7194 25.5149L22.9546 33.1999L30.1918 25.5159C31.073 24.5726 31.5661 23.3064 31.5658 21.988C31.5654 20.6696 31.0716 19.4037 30.1899 18.4609Z" fill="#D4D4D8" stroke="#161616" stroke-width="2" stroke-miterlimit="10" stroke-linecap="round" stroke-linejoin="round"/>
<path d="M40.1779 41H5.73341C4.71838 41 3.74493 40.5786 3.0272 39.8284C2.30947 39.0783 1.90625 38.0609 1.90625 37V1H17.2149L21.9988 9H44.005V37C44.005 38.0609 43.6018 39.0783 42.8841 39.8284C42.1663 40.5786 41.1929 41 40.1779 41Z" stroke="#161616" stroke-width="2" stroke-miterlimit="10" stroke-linecap="round" stroke-linejoin="round"/>
</svg>
