<svg width="129" height="129" viewBox="0 0 129 129" fill="none" xmlns="http://www.w3.org/2000/svg">
<mask id="mask0_3167_2678" style="mask-type:alpha" maskUnits="userSpaceOnUse" x="0" y="0" width="129" height="129">
<circle cx="64.5" cy="64.5" r="63.6103" fill="#C4C4C4" stroke="#F8BB54" stroke-width="1.77931"/>
</mask>
<g mask="url(#mask0_3167_2678)">
<path d="M-37.4844 27.0491C-37.4844 27.0491 -7.44941 21.4854 0.299994 2.01254C7.71125 -16.6543 38.2404 -21.6719 38.2404 -21.6719" stroke="#F8BB54" stroke-width="2" stroke-miterlimit="10"/>
<path d="M-37.4844 36.4083C-37.4844 36.4083 -0.636166 29.9868 8.85543 6.48428C17.905 -15.9524 55.3252 -21.6719 55.3252 -21.6719" stroke="#F8BB54" stroke-width="2" stroke-miterlimit="10"/>
<path d="M-37.4844 45.7938C-37.4844 45.7938 6.15098 38.4883 17.3849 11.008C28.0987 -15.2763 72.4102 -21.6719 72.4102 -21.6719" stroke="#F8BB54" stroke-width="2" stroke-miterlimit="10"/>
<path d="M-37.4844 55.1532C-37.4844 55.1532 12.9641 46.9898 25.9403 15.4798C38.2924 -14.5743 89.4951 -21.6719 89.4951 -21.6719" stroke="#F8BB54" stroke-width="2" stroke-miterlimit="10"/>
<path d="M-37.4844 64.5127C-37.4844 64.5127 19.7773 55.4913 34.4958 19.9774C48.486 -13.8723 106.554 -21.6719 106.554 -21.6719" stroke="#F8BB54" stroke-width="2" stroke-miterlimit="10"/>
<path d="M-37.4844 73.898C-37.4844 73.898 26.5644 64.0187 43.0252 24.4751C58.7058 -13.1965 123.639 -21.6719 123.639 -21.6719" stroke="#F8BB54" stroke-width="2" stroke-miterlimit="10"/>
<path d="M-37.4844 83.2574C-37.4844 83.2574 33.3776 72.494 51.5807 28.9729C68.8996 -12.4945 140.724 -21.6719 140.724 -21.6719" stroke="#F8BB54" stroke-width="2" stroke-miterlimit="10"/>
<path d="M-37.4844 92.6168C-37.4844 92.6168 40.1908 80.9955 60.11 33.4447C79.0932 -11.7925 157.809 -21.6719 157.809 -21.6719" stroke="#F8BB54" stroke-width="2" stroke-miterlimit="10"/>
<path d="M-37.4844 102.002C-37.4844 102.002 46.9778 89.5231 68.6655 37.9682C89.2871 -11.1167 174.868 -21.6719 174.868 -21.6719" stroke="#F8BB54" stroke-width="2" stroke-miterlimit="10"/>
<path d="M-37.4844 111.361C-37.4844 111.361 53.7911 98.0246 77.195 42.4661C99.4807 -10.4147 191.952 -21.6719 191.952 -21.6719" stroke="#F8BB54" stroke-width="2" stroke-miterlimit="10"/>
<path d="M-37.4844 120.747C-37.4844 120.747 60.6041 106.526 85.7505 46.9637C109.674 -9.71274 209.037 -21.6719 209.037 -21.6719" stroke="#F8BB54" stroke-width="2" stroke-miterlimit="10"/>
<path d="M-37.4844 130.107C-37.4844 130.107 67.3913 115.028 94.2799 51.4615C119.868 -9.03667 226.122 -21.6719 226.122 -21.6719" stroke="#F8BB54" stroke-width="2" stroke-miterlimit="10"/>
<path d="M-37.4844 139.465C-37.4844 139.465 74.2044 123.529 102.835 55.9331C130.062 -8.33471 243.206 -21.6719 243.206 -21.6719" stroke="#F8BB54" stroke-width="2" stroke-miterlimit="10"/>
<path d="M-37.4844 148.85C-37.4844 148.85 81.0177 132.031 111.391 60.4568C140.256 -7.63274 260.266 -21.6719 260.266 -21.6719" stroke="#F8BB54" stroke-width="2" stroke-miterlimit="10"/>
<path d="M-37.4844 158.211C-37.4844 158.211 87.8047 140.532 119.92 64.9286C150.449 -6.95687 277.351 -21.6719 277.351 -21.6719" stroke="#F8BB54" stroke-width="2" stroke-miterlimit="10"/>
<path d="M-37.4844 167.571C-37.4844 167.571 94.618 149.034 128.476 69.4262C160.643 -6.25489 294.436 -21.6719 294.436 -21.6719" stroke="#F8BB54" stroke-width="2" stroke-miterlimit="10"/>
<path d="M-37.4844 176.956C-37.4844 176.956 101.431 157.56 137.005 73.9241C170.837 -5.55293 311.52 -21.6719 311.52 -21.6719" stroke="#F8BB54" stroke-width="2" stroke-miterlimit="10"/>
<path d="M-37.4844 186.315C-37.4844 186.315 108.218 166.036 145.56 78.4217C181.031 -4.87706 328.58 -21.6719 328.58 -21.6719" stroke="#F8BB54" stroke-width="2" stroke-miterlimit="10"/>
</g>
</svg>
